<svg width="94" height="94" viewBox="0 0 94 94" fill="none" xmlns="http://www.w3.org/2000/svg">
<path d="M70.8307 36.2966H71.565C71.565 27.3188 78.8721 20.0118 87.8498 20.0118V19.2774C78.8721 19.2774 71.565 11.9704 71.565 2.99268H70.8307C70.8307 11.9704 63.5236 19.2774 54.5459 19.2774V20.0118C63.5236 20.0118 70.8307 27.3188 70.8307 36.2966Z" fill="white"/>
<path d="M71.565 57.7036H70.8307C70.8307 66.6813 63.5236 73.9884 54.5459 73.9884V74.7228C63.5236 74.7228 70.8307 82.0298 70.8307 91.0075H71.565C71.565 82.0298 78.8721 74.7228 87.8498 74.7228V73.9884C78.8721 73.9884 71.565 66.6813 71.565 57.7036Z" fill="white"/>
<path d="M75.2365 47.5692V46.8348H75.0713C56.308 46.8348 41.0514 31.5782 41.0514 12.8149V12.6497H40.317V12.8149C40.317 31.5782 25.0603 46.8348 6.29707 46.8348H6.13184V47.5692H6.29707C25.0603 47.5692 40.317 62.8258 40.317 81.5891V81.7543H41.0514V81.5891C41.0514 62.8258 56.308 47.5692 75.0713 47.5692H75.2365Z" fill="white"/>
</svg>
