<svg width="40" height="40" viewBox="0 0 40 40" fill="none" xmlns="http://www.w3.org/2000/svg">
<circle cx="20" cy="20" r="20" fill="url(#paint0_linear_7312_4392)"/>
<g filter="url(#filter0_i_7312_4392)">
<path d="M25.5398 16.7576C25.4742 16.7576 25.4185 16.7445 25.3725 16.7183C25.3266 16.6921 25.2905 16.6462 25.2643 16.5807L24.6936 15.2438L23.2569 14.6147C23.1913 14.5885 23.1454 14.5525 23.1192 14.5066C23.0929 14.4607 23.0798 14.405 23.0798 14.3395C23.0798 14.274 23.0929 14.2183 23.1192 14.1724C23.1454 14.1265 23.1913 14.0905 23.2569 14.0643L24.6936 13.4548L25.2643 12.1769C25.2905 12.1114 25.3266 12.0655 25.3725 12.0393C25.4185 12.0131 25.4742 12 25.5398 12C25.6054 12 25.6612 12.0131 25.7071 12.0393C25.753 12.0655 25.7891 12.1114 25.8153 12.1769L26.386 13.4548L27.8227 14.0643C27.8883 14.0905 27.9342 14.1265 27.9604 14.1724C27.9867 14.2183 27.9998 14.274 27.9998 14.3395C27.9998 14.405 27.9867 14.4607 27.9604 14.5066C27.9342 14.5525 27.8883 14.5885 27.8227 14.6147L26.386 15.2438L25.8153 16.5807C25.7891 16.6462 25.753 16.6921 25.7071 16.7183C25.6612 16.7445 25.6054 16.7576 25.5398 16.7576ZM25.5398 28.4747C25.4873 28.4747 25.4349 28.4616 25.3824 28.4354C25.3299 28.4092 25.2905 28.3633 25.2643 28.2977L24.6936 27.0199L23.2766 26.4104C23.211 26.3842 23.1651 26.3482 23.1389 26.3023C23.1126 26.2564 23.0995 26.2007 23.0995 26.1352C23.0995 26.0697 23.1126 26.014 23.1389 25.9681C23.1651 25.9222 23.211 25.8862 23.2766 25.86L24.6936 25.2505L25.2643 23.894C25.2905 23.8285 25.3266 23.7826 25.3725 23.7564C25.4185 23.7302 25.4742 23.7171 25.5398 23.7171C25.6054 23.7171 25.6612 23.7302 25.7071 23.7564C25.753 23.7826 25.7891 23.8285 25.8153 23.894L26.386 25.2505L27.803 25.86C27.8686 25.8862 27.9145 25.9222 27.9408 25.9681C27.967 26.014 27.9801 26.0697 27.9801 26.1352C27.9801 26.2007 27.967 26.2564 27.9408 26.3023C27.9145 26.3482 27.8686 26.3842 27.803 26.4104L26.386 27.0199L25.8153 28.2977C25.7891 28.3633 25.7497 28.4092 25.6973 28.4354C25.6448 28.4616 25.5923 28.4747 25.5398 28.4747ZM16.9003 25.0736C16.7953 25.0736 16.6937 25.0441 16.5953 24.9851C16.4969 24.9261 16.4214 24.8442 16.369 24.7394L15.0898 22.0067L12.3346 20.7681C12.2296 20.7157 12.1476 20.6404 12.0886 20.5421C12.0295 20.4438 12 20.3422 12 20.2373C12 20.1325 12.0295 20.0309 12.0886 19.9326C12.1476 19.8343 12.2296 19.759 12.3346 19.7065L15.0898 18.468L16.369 15.755C16.4214 15.637 16.4969 15.5485 16.5953 15.4896C16.6937 15.4306 16.7953 15.4011 16.9003 15.4011C17.0053 15.4011 17.1069 15.4306 17.2053 15.4896C17.3037 15.5485 17.3792 15.6305 17.4317 15.7353L18.7305 18.468L21.4661 19.7065C21.5841 19.759 21.6727 19.8343 21.7317 19.9326C21.7908 20.0309 21.8203 20.1325 21.8203 20.2373C21.8203 20.3422 21.7908 20.4438 21.7317 20.5421C21.6727 20.6404 21.5841 20.7157 21.4661 20.7681L18.7305 22.0067L17.4317 24.7394C17.3792 24.8573 17.3037 24.9425 17.2053 24.9949C17.1069 25.0474 17.0053 25.0736 16.9003 25.0736Z" fill="url(#paint1_linear_7312_4392)"/>
</g>
<defs>
<filter id="filter0_i_7312_4392" x="12" y="12" width="16" height="19.5502" filterUnits="userSpaceOnUse" color-interpolation-filters="sRGB">
<feFlood flood-opacity="0" result="BackgroundImageFix"/>
<feBlend mode="normal" in="SourceGraphic" in2="BackgroundImageFix" result="shape"/>
<feColorMatrix in="SourceAlpha" type="matrix" values="0 0 0 0 0 0 0 0 0 0 0 0 0 0 0 0 0 0 127 0" result="hardAlpha"/>
<feOffset dy="3.07361"/>
<feGaussianBlur stdDeviation="1.9393"/>
<feComposite in2="hardAlpha" operator="arithmetic" k2="-1" k3="1"/>
<feColorMatrix type="matrix" values="0 0 0 0 1 0 0 0 0 1 0 0 0 0 1 0 0 0 1 0"/>
<feBlend mode="normal" in2="shape" result="effect1_innerShadow_7312_4392"/>
</filter>
<linearGradient id="paint0_linear_7312_4392" x1="23.8824" y1="33.1765" x2="32.3889" y2="2.42592" gradientUnits="userSpaceOnUse">
<stop stop-color="#E54F38"/>
<stop offset="0.927091" stop-color="#EC1F00"/>
</linearGradient>
<linearGradient id="paint1_linear_7312_4392" x1="22.7967" y1="19.7547" x2="20.3181" y2="31.2772" gradientUnits="userSpaceOnUse">
<stop stop-color="white" stop-opacity="0.96"/>
<stop offset="1" stop-color="white" stop-opacity="0.23"/>
</linearGradient>
</defs>
</svg>
