<svg width="60" height="60" viewBox="0 0 60 60" fill="none" xmlns="http://www.w3.org/2000/svg">
<path d="M37 0C49.7025 0 60 10.2975 60 23V37C60 49.7025 49.7025 60 37 60H23C10.2975 60 0 49.7025 0 37V23C0 10.2975 10.2975 0 23 0H37Z" fill="#2B7FFF"/>
<path d="M19.3335 44.3333V17.6667H34.6668L40.6668 24.6667V44.3333H19.3335Z" stroke="white" stroke-width="2" stroke-linecap="round" stroke-linejoin="round"/>
<path d="M25.3335 27L34.6668 36.3333M36.6668 31.6667C36.6668 35.3487 33.6822 38.3333 30.0002 38.3333C26.3182 38.3333 23.3335 35.3487 23.3335 31.6667C23.3335 27.9847 26.3182 25 30.0002 25C31.7024 24.998 33.3405 25.6492 34.5768 26.8193C35.2378 27.4417 35.7642 28.1929 36.1237 29.0266C36.4831 29.8603 36.668 30.7588 36.6668 31.6667Z" stroke="white" stroke-width="2" stroke-linecap="round" stroke-linejoin="round"/>
<path d="M36.6668 31.6667C36.6668 35.3487 33.6822 38.3333 30.0002 38.3333M23.3335 31.6667C23.3335 27.9847 26.3182 25 30.0002 25" stroke="white" stroke-width="2" stroke-linecap="round" stroke-linejoin="round"/>
</svg>
