<svg width="60" height="60" viewBox="0 0 60 60" fill="none" xmlns="http://www.w3.org/2000/svg">
<path d="M37 0C49.7025 0 60 10.2975 60 23V37C60 49.7025 49.7025 60 37 60H23C10.2975 60 0 49.7025 0 37V23C0 10.2975 10.2975 0 23 0H37Z" fill="#2B7FFF"/>
<path d="M32.6668 15.6667H22.0002C20.5335 15.6667 19.3468 16.8667 19.3468 18.3333L19.3335 39.6667C19.3335 41.1333 20.5202 42.3333 21.9868 42.3333H38.0002C39.4668 42.3333 40.6668 41.1333 40.6668 39.6667V23.6667L32.6668 15.6667ZM38.0002 39.6667H22.0002V18.3333H31.5602L38.0002 24.7733V39.6667ZM25.2668 27.0933L23.7068 25.5333V30.3333H28.5068L26.5868 28.4133C26.9386 27.729 27.4715 27.1545 28.1275 26.7524C28.7836 26.3503 29.5374 26.1362 30.3068 26.1333C31.4207 26.1333 32.489 26.5758 33.2767 27.3635C34.0643 28.1511 34.5068 29.2194 34.5068 30.3333C34.5068 31.4472 34.0643 32.5155 33.2767 33.3032C32.489 34.0908 31.4207 34.5333 30.3068 34.5333C29.6307 34.5334 28.9646 34.3697 28.3656 34.0562C27.7665 33.7427 27.2523 33.2888 26.8668 32.7333H24.8002C25.2682 33.8014 26.0366 34.7104 27.0119 35.3496C27.9873 35.9887 29.1274 36.3305 30.2935 36.3333C33.6002 36.3333 36.2935 33.64 36.2935 30.3333C36.2935 27.0267 33.6002 24.3333 30.2935 24.3333C28.1735 24.3333 26.3335 25.44 25.2668 27.0933Z" fill="white"/>
</svg>
