<svg width="60" height="60" viewBox="0 0 60 60" fill="none" xmlns="http://www.w3.org/2000/svg">
<path d="M37 0C49.7025 0 60 10.2975 60 23V37C60 49.7025 49.7025 60 37 60H23C10.2975 60 0 49.7025 0 37V23C0 10.2975 10.2975 0 23 0H37Z" fill="#2B7FFF"/>
<path d="M40 46H20C18.34 46 17 44.66 17 43V17C17 15.34 18.34 14 20 14H34.18C34.98 14 35.74 14.32 36.3 14.88L42.12 20.7C42.68 21.26 43 22.02 43 22.82V43C43 44.66 41.66 46 40 46ZM20 16C19.44 16 19 16.44 19 17V43C19 43.56 19.44 44 20 44H40C40.56 44 41 43.56 41 43V22.82C41.0016 22.6888 40.9757 22.5588 40.9241 22.4383C40.8724 22.3177 40.7961 22.2093 40.7 22.12L34.88 16.3C34.6954 16.1116 34.4438 16.0038 34.18 16H20Z" fill="white"/>
<path d="M41.76 24H35.94C34.32 24 33 22.68 33 21.06V15.24C33 14.68 33.44 14.24 34 14.24C34.56 14.24 35 14.68 35 15.24V21.06C35 21.58 35.42 22 35.94 22H41.76C42.32 22 42.76 22.44 42.76 23C42.76 23.56 42.32 24 41.76 24ZM35 40H25C24.44 40 24 39.56 24 39C24 38.44 24.44 38 25 38H35C35.56 38 36 38.44 36 39C36 39.56 35.56 40 35 40ZM35 34H25C24.44 34 24 33.56 24 33C24 32.44 24.44 32 25 32H35C35.56 32 36 32.44 36 33C36 33.56 35.56 34 35 34ZM29 28H25C24.44 28 24 27.56 24 27C24 26.44 24.44 26 25 26H29C29.56 26 30 26.44 30 27C30 27.56 29.56 28 29 28Z" fill="white"/>
</svg>
